<svg xmlns="http://www.w3.org/2000/svg" xmlns:xlink="http://www.w3.org/1999/xlink" width="25" height="25" viewBox="0 0 25 25">
    <defs>
        <path id="a" d="M0 0h25v25H0z"/>
    </defs>
    <g fill="none" fill-rule="evenodd">
        <mask id="b" fill="#fff">
            <use xlink:href="#a"/>
        </mask>
        <path fill="#CACEDB" d="M12.52 16.696c-2.3 0-4.17-1.87-4.17-4.17 0-2.299 1.87-4.169 4.17-4.169 2.299 0 4.17 1.87 4.17 4.17 0 2.299-1.871 4.169-4.17 4.169m12.402-5.584c-.04-.351-.45-.615-.804-.615a2.777 2.777 0 0 1-2.588-1.713 2.784 2.784 0 0 1 .699-3.091.694.694 0 0 0 .076-.943 12.37 12.37 0 0 0-1.98-2 .696.696 0 0 0-.95.077c-.746.825-2.084 1.132-3.118.7A2.777 2.777 0 0 1 14.568.813a.693.693 0 0 0-.613-.73 12.48 12.48 0 0 0-2.812-.007.696.696 0 0 0-.62.715 2.781 2.781 0 0 1-1.711 2.667c-1.022.417-2.35.113-3.094-.704a.697.697 0 0 0-.944-.08c-.749.588-1.43 1.261-2.022 2a.695.695 0 0 0 .075.95 2.77 2.77 0 0 1 .699 3.118c-.432 1.028-1.499 1.69-2.72 1.69a.68.68 0 0 0-.722.614 12.52 12.52 0 0 0-.006 2.842c.04.353.462.615.82.615 1.088-.028 2.134.646 2.572 1.713a2.78 2.78 0 0 1-.699 3.091.695.695 0 0 0-.076.942c.58.74 1.247 1.413 1.978 2 .286.231.703.199.95-.075.749-.827 2.087-1.133 3.117-.7a2.772 2.772 0 0 1 1.691 2.712.694.694 0 0 0 .614.73 12.425 12.425 0 0 0 2.812.008.696.696 0 0 0 .619-.716 2.778 2.778 0 0 1 1.71-2.665c1.029-.42 2.352-.113 3.096.704a.698.698 0 0 0 .944.079 12.44 12.44 0 0 0 2.022-2 .694.694 0 0 0-.075-.95 2.77 2.77 0 0 1-.7-3.118 2.799 2.799 0 0 1 2.557-1.694l.155.004a.696.696 0 0 0 .731-.613c.11-.94.112-1.896.006-2.843" mask="url(#b)"/>
    </g>
</svg>
