<?xml version="1.0" encoding="UTF-8"?>
<svg width="142px" height="50px" viewBox="0 0 142 50" version="1.1" xmlns="http://www.w3.org/2000/svg" xmlns:xlink="http://www.w3.org/1999/xlink">
    <!-- Generator: sketchtool 52.6 (67491) - http://www.bohemiancoding.com/sketch -->
    <title>9FCFAD58-6EC2-482F-8E96-16DA8299447E</title>
    <desc>Created with sketchtool.</desc>
    <g id="Demo" stroke="none" stroke-width="1" fill="none" fill-rule="evenodd">
        <g id="1.0-Login" transform="translate(-649.000000, -87.000000)">
            <g id="Logo/grip/main" transform="translate(649.000000, 87.000000)">
                <g id="Group" stroke-width="1" transform="translate(0.000000, -0.000000)">
                    <ellipse id="Oval" fill="#007BFF" cx="25.1327434" cy="25" rx="25.1327434" ry="25"></ellipse>
                    <path d="M32.4890147,10 L25.7032724,10 C24.892065,10 24.050645,10.5346626 23.6994239,11.2727875 L16.5043014,26.4154407 C16.267888,26.908034 16.2829943,27.4312231 16.5367799,27.8465618 C16.7950973,28.2649601 17.2497964,28.5097269 17.7898461,28.5212004 L23.1178321,28.5892762 L19.2619533,38.3516484 C19.1675391,38.5964152 18.9666255,39.1043064 19.3216231,39.6305551 C19.4779732,39.8607889 19.7438438,40 20.0172675,40 L20.0792032,40 C20.6011253,40 20.9138254,39.6007241 21.0656435,39.4095 L33.5245504,23.5616124 C34.0585575,22.8862089 33.8372504,22.2827057 33.7579425,22.1067795 C33.6748579,21.9362076 33.3387431,21.3831876 32.4920359,21.3831876 L28.5266367,21.3831876 L33.7133789,12.1241172 C33.985292,11.6368782 34.0026642,11.1083348 33.7518999,10.6776982 C33.5041569,10.2478264 33.0441706,10 32.4890147,10 Z" id="Fill-1" fill="#FFFFFF"></path>
                </g>
                <path d="M76.6598938,12.825 C81.8322124,12.825 86.124885,15.485 87.9545487,20.175 L84.119292,20.175 C82.7822301,17.34 80.1081062,15.695 76.6598938,15.695 C71.4875752,15.695 67.6171327,19.405 67.6171327,25.285 C67.6171327,31.13 71.4875752,34.84 76.6598938,34.84 C81.480354,34.84 84.787823,31.76 85.2804248,26.93 L75.4987611,26.93 L75.4987611,24.34 L88.6934513,24.34 L88.6934513,26.79 C88.1304779,32.845 83.3100177,37.71 76.6598938,37.71 C69.763469,37.71 64.3448496,32.6 64.3448496,25.285 C64.3448496,17.97 69.763469,12.825 76.6598938,12.825 Z M106.821978,20.28 C106.821978,17.515 105.273801,15.73 101.614474,15.73 L96.8995713,15.73 L96.8995713,24.97 L101.614474,24.97 C105.238616,24.97 106.821978,23.01 106.821978,20.28 Z M93.6976598,13.105 L101.614474,13.105 C107.384952,13.105 110.129447,16.29 110.129447,20.28 C110.129447,23.395 108.405341,26.37 104.288598,27.28 L110.44612,37.5 L106.610863,37.5 L100.770014,27.525 L96.8995713,27.525 L96.8995713,37.5 L93.6976598,37.5 L93.6976598,13.105 Z M115.872559,37.5 L115.872559,13.105 L119.07447,13.105 L119.07447,37.5 L115.872559,37.5 Z M128.512094,24.69 L133.226997,24.69 C136.886325,24.69 138.434502,22.975 138.434502,20.245 C138.434502,17.41 136.886325,15.73 133.226997,15.73 L128.512094,15.73 L128.512094,24.69 Z M141.706785,20.245 C141.706785,23.955 139.314148,27.315 133.226997,27.315 L128.512094,27.315 L128.512094,37.5 L125.310183,37.5 L125.310183,13.105 L133.226997,13.105 C138.997475,13.105 141.706785,16.255 141.706785,20.245 Z" id="GRIP-Copy" fill="#007BFF"></path>
            </g>
        </g>
    </g>
</svg>